<svg xmlns="http://www.w3.org/2000/svg" preserveAspectRatio="xMidYMid" width="30" height="30" viewBox="0 0 30 30"><defs><style>.cls-1{fill:#fff;fill-rule:evenodd}</style></defs><path d="M29.1 14.524a.9.9 0 0 1-.9-.899c0-3.159-1.23-6.129-3.463-8.362A11.744 11.744 0 0 0 16.375 1.8a.9.9 0 0 1 0-1.8c3.639 0 7.061 1.417 9.634 3.991A13.531 13.531 0 0 1 30 13.625a.9.9 0 0 1-.9.899zM16.375 9.128c1.219 0 2.318.455 3.18 1.317a4.41 4.41 0 0 1 1.317 3.179.9.9 0 0 1-1.8 0c0-.731-.273-1.39-.79-1.907a2.61 2.61 0 0 0-1.906-.79h-.001a.9.9 0 1 1 0-1.799zm0-4.564c2.42 0 4.696.942 6.407 2.654a9.001 9.001 0 0 1 2.654 6.407.9.9 0 0 1-1.8-.001A7.216 7.216 0 0 0 21.51 8.49a7.217 7.217 0 0 0-5.135-2.127.9.9 0 1 1 0-1.799zm-5.496 6.527a1.794 1.794 0 0 1-1.772.455l-.578.578c-.409.41.22 2.96 3.303 6.043 3.083 3.083 5.634 3.713 6.044 3.303v-.001l.577-.577a1.8 1.8 0 0 1 .455-1.771l1.529-1.529a1.801 1.801 0 0 1 2.545 0l5.879 5.878a1.802 1.802 0 0 1-.001 2.545l-1.528 1.529a1.792 1.792 0 0 1-1.773.456l-.32.321C24.125 29.434 22.57 30 20.706 30c-1.137 0-2.389-.21-3.727-.634-3.331-1.056-6.861-3.332-9.937-6.409-3.077-3.076-5.353-6.605-6.409-9.937-1.078-3.402-.773-6.248.854-8.056C1.511 4.933 2 4.44 2 4.44a1.8 1.8 0 0 1 .455-1.772l1.529-1.529c.34-.34.792-.527 1.272-.527.481 0 .933.187 1.273.527l5.878 5.878a1.801 1.801 0 0 1 0 2.545l-1.528 1.529zm15.18 15.18c.001.001 1.529-1.528 1.529-1.528l-5.878-5.878-1.529 1.528 5.878 5.878zM2.951 6.033c-1.295 1.295-1.508 3.583-.602 6.444.97 3.061 3.089 6.331 5.965 9.208 2.877 2.876 6.147 4.995 9.209 5.965 2.86.906 5.148.693 6.443-.602l.163-.162-4.562-4.562-.418.418h-.001c-.436.437-1.01.632-1.671.632-1.966 0-4.706-1.723-6.917-3.934-2.954-2.954-5.037-6.852-3.304-8.588l.001-.001.419-.418-4.562-4.562-.163.162zm2.305-3.622L3.728 3.94l2.939 2.939 2.917 2.917.022.022.001.001 1.528-1.529-5.879-5.879z" class="cls-1"/></svg>