<?xml version="1.0" standalone="no"?>
<!DOCTYPE svg PUBLIC "-//W3C//DTD SVG 1.1//EN" "http://www.w3.org/Graphics/SVG/1.1/DTD/svg11.dtd" >
<svg xmlns="http://www.w3.org/2000/svg">
<metadata>Generated by IcoMoon</metadata>
<defs>
<font id="icons" horiz-adv-x="1024">
<font-face units-per-em="1024" ascent="960" descent="-64" />
<missing-glyph horiz-adv-x="1024" />
<glyph unicode="&#x20;" horiz-adv-x="512" d="" />
<glyph unicode="&#xe900;" glyph-name="arrow" horiz-adv-x="728" d="M417.119-30.764l-7.519 7.519v-11.498l-29.257-29.257h-58.514v1024h87.771v-874.174l255.795 255.795 62.054-62.054-310.331-310.331zM63.605 345.278l199.709-233.735v-117.029l-262.992 287.481 63.283 63.283z" />
<glyph unicode="&#xe901;" glyph-name="attachment" d="M168.851 142.979c57.736 107.302 113.838 215.694 173.753 321.906 75.711 135.081 154.689 268.528 230.945 403.609 23.966 42.485 54.468 76.255 101.855 91.506 20.153 0 39.762 0 59.915 0 6.536-2.723 12.528-5.991 19.609-8.715 92.051-35.949 125.277-126.911 76.255-212.426-59.37-104.034-119.285-207.523-178.655-311.557-35.949-62.094-70.809-124.732-107.302-186.281-11.983-19.609-26.689-39.217-44.119-54.468-35.404-29.957-83.881-31.591-119.285-8.17-37.038 24.511-52.834 69.174-39.217 114.928 4.902 16.34 11.438 32.681 20.153 47.387 62.638 109.481 125.277 218.417 188.46 327.898 3.268 5.447 5.447 13.617 10.349 15.251 9.26 3.813 21.243 8.17 28.868 4.902 5.991-2.179 10.349-16.34 9.804-24.511-0.545-9.26-7.081-18.519-11.983-26.689-59.915-104.579-120.374-209.157-179.745-313.736-9.804-17.974-20.153-38.128-20.698-57.736 0-16.34 10.349-39.217 23.421-46.843s37.583-5.991 52.834 1.089c15.251 7.081 27.779 23.421 36.494 38.672 98.043 168.851 194.996 337.702 291.404 507.098 23.421 41.396 19.609 76.255-8.17 108.391-48.477 55.557-120.919 49.566-158.502-14.162-37.038-62.094-72.443-125.821-108.391-188.46-92.596-159.591-184.647-319.183-275.609-479.319-50.655-88.783-10.349-179.2 88.783-203.711 59.915-14.706 108.391 6.536 143.251 66.451 48.477 82.791 95.864 166.672 143.796 250.009 51.745 90.417 104.034 180.834 155.779 271.251 3.813 7.081 7.626 16.34 14.162 19.609 7.626 4.357 20.698 7.626 26.145 3.813 6.536-4.902 10.894-17.43 10.349-26.689 0-8.17-7.081-16.34-11.438-23.966-98.043-170.485-196.085-340.97-294.128-512-23.421-41.396-53.379-75.711-100.221-90.962-100.221-33.226-215.149 28.323-243.472 130.179-1.634 5.991-4.357 11.983-6.536 17.974 1.089 15.796 1.089 32.136 1.089 48.477z" />
<glyph unicode="&#xe902;" glyph-name="computer" d="M733.824 4.224h-119.424v85.376c0 9.472-7.68 17.024-17.024 17.024-9.472 0-17.024-7.68-17.024-17.024v-85.376h-136.576v85.376c0 9.472-7.68 17.024-17.024 17.024-9.472 0-17.024-7.68-17.024-17.024v-85.376h-119.424c-9.472 0-17.024-7.68-17.024-17.024s7.68-17.024 17.024-17.024h443.776c9.472 0 17.024 7.68 17.024 17.024s-7.808 17.024-17.28 17.024zM512.512 243.2h-0.128c-9.472 0-17.024-7.68-17.024-17.024 0-9.472 7.68-17.024 17.152-17.024s17.024 7.68 17.024 17.024c0 9.344-7.552 17.024-17.024 17.024zM824.192 691.968c3.328-3.328 7.68-4.992 12.032-4.992s8.704 1.664 12.032 4.992c6.656 6.656 6.656 17.408 0 24.192l-34.176 34.176c-6.656 6.656-17.408 6.656-24.192 0-6.656-6.656-6.656-17.408 0-24.192l34.304-34.176zM824.192 589.568c3.328-3.328 7.68-4.992 12.032-4.992s8.704 1.664 12.032 4.992c6.656 6.656 6.656 17.408 0 24.192l-136.448 136.448c-6.656 6.656-17.408 6.656-24.192 0-6.656-6.656-6.656-17.408 0-24.192l136.576-136.448zM938.624 925.824h-853.248c-43.904 0-85.376-41.472-85.376-85.248v-614.4c0-43.904 41.472-85.376 85.376-85.376h853.376c43.904 0 85.376 41.472 85.376 85.376v614.4c-0.128 43.776-41.6 85.248-85.504 85.248zM989.824 226.176c0-24.832-26.368-51.2-51.2-51.2h-853.248c-24.832 0-51.2 26.368-51.2 51.2v614.4c0 24.832 26.368 51.2 51.2 51.2h853.376c24.832 0 51.2-26.368 51.2-51.2l-0.128-614.4zM938.624 857.6h-853.248c-9.472 0-17.024-7.68-17.024-17.024v-546.176c0-9.472 7.68-17.024 17.024-17.024h853.376c9.472 0 17.024 7.68 17.024 17.024v546.176c0 9.344-7.68 17.024-17.152 17.024zM921.6 311.424h-819.2v512h819.2v-512z" />
<glyph unicode="&#xe903;" glyph-name="computer_y" d="M733.824 4.224h-119.424v85.376c0 9.472-7.68 17.024-17.024 17.024-9.472 0-17.024-7.68-17.024-17.024v-85.376h-136.576v85.376c0 9.472-7.68 17.024-17.024 17.024-9.472 0-17.024-7.68-17.024-17.024v-85.376h-119.424c-9.472 0-17.024-7.68-17.024-17.024s7.68-17.024 17.024-17.024h443.776c9.472 0 17.024 7.68 17.024 17.024s-7.808 17.024-17.28 17.024zM512.512 243.2h-0.128c-9.472 0-17.024-7.68-17.024-17.024 0-9.472 7.68-17.024 17.152-17.024s17.024 7.68 17.024 17.024c0 9.344-7.552 17.024-17.024 17.024zM824.192 691.968c3.328-3.328 7.68-4.992 12.032-4.992s8.704 1.664 12.032 4.992c6.656 6.656 6.656 17.408 0 24.192l-34.176 34.176c-6.656 6.656-17.408 6.656-24.192 0-6.656-6.656-6.656-17.408 0-24.192l34.304-34.176zM824.192 589.568c3.328-3.328 7.68-4.992 12.032-4.992s8.704 1.664 12.032 4.992c6.656 6.656 6.656 17.408 0 24.192l-136.448 136.448c-6.656 6.656-17.408 6.656-24.192 0-6.656-6.656-6.656-17.408 0-24.192l136.576-136.448zM938.624 925.824h-853.248c-43.904 0-85.376-41.472-85.376-85.248v-614.4c0-43.904 41.472-85.376 85.376-85.376h853.376c43.904 0 85.376 41.472 85.376 85.376v614.4c-0.128 43.776-41.6 85.248-85.504 85.248zM989.824 226.176c0-24.832-26.368-51.2-51.2-51.2h-853.248c-24.832 0-51.2 26.368-51.2 51.2v614.4c0 24.832 26.368 51.2 51.2 51.2h853.376c24.832 0 51.2-26.368 51.2-51.2l-0.128-614.4zM938.624 857.6h-853.248c-9.472 0-17.024-7.68-17.024-17.024v-546.176c0-9.472 7.68-17.024 17.024-17.024h853.376c9.472 0 17.024 7.68 17.024 17.024v546.176c0 9.344-7.68 17.024-17.152 17.024zM921.6 311.424h-819.2v512h819.2v-512z" />
<glyph unicode="&#xe904;" glyph-name="device" d="M1006.976 960h-989.952c-10.24 0-17.024-6.784-17.024-17.024v-785.024c0-10.24 6.784-17.024 17.024-17.024h375.424v-170.624h-51.2v-34.176h273.152v34.176h-187.776v170.496h170.624v34.176h-563.072v136.448h563.2v34.176h-494.976v512h819.2v-273.024h34.176v290.048c0 10.24-6.784 17.024-17.024 17.024h-853.376c-10.24 0-17.024-6.784-17.024-17.024v-529.024h-34.176v580.224h955.776v-341.376h34.048v358.4c0 10.368-6.784 17.152-17.024 17.152zM1006.976 516.224h-341.376c-10.24 0-17.024-6.784-17.024-17.024v-546.176c0-10.24 6.784-17.024 17.024-17.024h341.376c10.24 0 17.024 6.784 17.024 17.024v546.176c0 10.24-6.784 17.024-17.024 17.024zM989.824-29.824h-307.2v51.2h307.2v-51.2zM989.824 55.424h-307.2v324.352h307.2v-324.352zM989.824 413.824h-307.2v68.224h307.2v-68.224zM802.176 465.024h68.224v-34.176h-68.224v34.176zM733.824 209.024h204.8c10.24 0 17.024 6.784 17.024 17.024v102.4c0 10.24-6.784 17.024-17.024 17.024h-204.8c-10.24 0-17.024-6.784-17.024-17.024v-102.4c0-10.112 6.784-17.024 17.024-17.024zM750.976 311.424h170.624v-68.224h-170.624v68.224zM716.8 174.976h238.976v-34.176h-238.976v34.176zM716.8 123.776h238.976v-34.176h-238.976v34.176zM887.424 635.776v170.624c0 10.24-6.784 17.024-17.024 17.024h-716.8c-10.24 0-17.024-6.784-17.024-17.024v-170.624c0-10.24 6.784-17.024 17.024-17.024h716.8c10.24-0.128 17.024 6.784 17.024 17.024zM853.376 652.8h-682.752v136.576h682.624v-136.576zM153.6 584.576c-10.24 0-17.024-6.784-17.024-17.024v-170.752c0-10.24 6.784-17.024 17.024-17.024h204.8c10.24 0 17.024 6.784 17.024 17.024v170.624c0 10.24-6.784 17.024-17.024 17.024h-204.8zM341.376 413.824h-170.752v136.576h170.624v-136.576zM409.6 567.424h136.576v-34.176h-136.576v34.176zM409.6 499.2h170.624v-34.176h-170.624v34.176zM409.6 430.976h170.624v-34.176h-170.624v34.176z" />
<glyph unicode="&#xe905;" glyph-name="device_y" d="M1006.976 960h-989.952c-10.24 0-17.024-6.784-17.024-17.024v-785.024c0-10.24 6.784-17.024 17.024-17.024h375.424v-170.624h-51.2v-34.176h273.152v34.176h-187.776v170.496h170.624v34.176h-563.072v136.448h563.2v34.176h-494.976v512h819.2v-273.024h34.176v290.048c0 10.24-6.784 17.024-17.024 17.024h-853.376c-10.24 0-17.024-6.784-17.024-17.024v-529.024h-34.176v580.224h955.776v-341.376h34.048v358.4c0 10.368-6.784 17.152-17.024 17.152zM1006.976 516.224h-341.376c-10.24 0-17.024-6.784-17.024-17.024v-546.176c0-10.24 6.784-17.024 17.024-17.024h341.376c10.24 0 17.024 6.784 17.024 17.024v546.176c0 10.24-6.784 17.024-17.024 17.024zM989.824-29.824h-307.2v51.2h307.2v-51.2zM989.824 55.424h-307.2v324.352h307.2v-324.352zM989.824 413.824h-307.2v68.224h307.2v-68.224zM802.176 465.024h68.224v-34.176h-68.224v34.176zM733.824 209.024h204.8c10.24 0 17.024 6.784 17.024 17.024v102.4c0 10.24-6.784 17.024-17.024 17.024h-204.8c-10.24 0-17.024-6.784-17.024-17.024v-102.4c0-10.112 6.784-17.024 17.024-17.024zM750.976 311.424h170.624v-68.224h-170.624v68.224zM716.8 174.976h238.976v-34.176h-238.976v34.176zM716.8 123.776h238.976v-34.176h-238.976v34.176zM887.424 635.776v170.624c0 10.24-6.784 17.024-17.024 17.024h-716.8c-10.24 0-17.024-6.784-17.024-17.024v-170.624c0-10.24 6.784-17.024 17.024-17.024h716.8c10.24-0.128 17.024 6.784 17.024 17.024zM853.376 652.8h-682.752v136.576h682.624v-136.576h0.128zM153.6 584.576c-10.24 0-17.024-6.784-17.024-17.024v-170.752c0-10.24 6.784-17.024 17.024-17.024h204.8c10.24 0 17.024 6.784 17.024 17.024v170.624c0 10.24-6.784 17.024-17.024 17.024l-204.8 0.128zM341.376 413.824h-170.752v136.576h170.624v-136.576h0.128zM409.6 567.424h136.576v-34.176h-136.576v34.176zM409.6 499.2h170.624v-34.176h-170.624v34.176zM409.6 430.976h170.624v-34.176h-170.624v34.176z" />
<glyph unicode="&#xe906;" d="M1024 448c0-282.77-229.23-512-512-512s-512 229.23-512 512c0 282.77 229.23 512 512 512s512-229.23 512-512z" />
<glyph unicode="&#xe907;" d="M641.024 427.52h-91.136v-334.848h-138.24v334.848h-65.536v117.76h65.536v76.8c0 54.272 25.6 139.264 139.264 139.264h102.4v-114.688h-74.752c-12.288 0-29.696-6.144-29.696-31.744v-69.632h103.424l-11.264-117.76z" />
<glyph unicode="&#xe908;" d="M1024 448c0-282.77-229.23-512-512-512s-512 229.23-512 512c0 282.77 229.23 512 512 512s512-229.23 512-512z" />
<glyph unicode="&#xe909;" d="M630.784 740.864h-236.544c-96.256 0-175.104-78.848-175.104-175.104v-236.544c0-96.256 77.824-174.080 174.080-174.080h236.544c96.256 0 174.080 78.848 174.080 174.080v236.544c1.024 97.28-76.8 175.104-173.056 175.104v0zM746.496 329.216c0-63.488-52.224-115.712-115.712-115.712h-236.544c-63.488 0-115.712 52.224-115.712 115.712v236.544c0 63.488 52.224 115.712 115.712 115.712h236.544c63.488 0 115.712-52.224 115.712-115.712v-236.544z" />
<glyph unicode="&#xe90a;" d="M512 599.552c-83.968 0-151.552-67.584-151.552-151.552s67.584-151.552 151.552-151.552 151.552 67.584 151.552 151.552-67.584 151.552-151.552 151.552v0zM512 355.84c-51.2 0-92.16 40.96-92.16 92.16s40.96 92.16 92.16 92.16 92.16-40.96 92.16-92.16-40.96-92.16-92.16-92.16v0z" />
<glyph unicode="&#xe90b;" d="M700.416 598.528c0-20.48-16.384-35.84-36.864-35.84s-35.84 16.384-35.84 35.84 16.384 35.84 35.84 35.84c20.48 0 36.864-15.36 36.864-35.84v0z" />
<glyph unicode="&#xe90c;" glyph-name="iphone" d="M461.184 891.776c-9.472 0-17.024-7.68-17.024-17.024s7.68-17.024 17.152-17.024c9.472 0 17.024 7.68 17.024 17.024s-7.68 17.024-17.024 17.024h-0.128zM477.824 38.4c0-18.816 15.36-34.176 34.176-34.176s34.176 15.36 34.176 34.176c0 18.816-15.36 34.176-34.176 34.176s-34.176-15.36-34.176-34.176zM256 174.976c9.472 0 17.024 7.68 17.024 17.024v682.624c0 24.832 26.368 51.2 51.2 51.2h375.424c24.832 0 51.2-26.368 51.2-51.2 0-9.472 7.68-17.024 17.024-17.024s17.024 7.68 17.024 17.024c0 43.904-41.472 85.376-85.376 85.376h-375.296c-43.904 0-85.376-41.472-85.376-85.376v-682.624c0.128-9.472 7.68-17.024 17.152-17.024zM529.024 891.776c-9.472 0-17.024-7.68-17.024-17.024s7.68-17.024 17.024-17.024h68.224c9.472 0 17.024 7.68 17.024 17.024s-7.68 17.024-17.024 17.024h-68.224zM665.6 652.8c4.352 0 8.704 1.664 12.032 4.992 6.656 6.656 6.656 17.408 0 24.192l-34.176 34.176c-6.656 6.656-17.408 6.656-24.192 0-6.656-6.656-6.656-17.408 0-24.192l34.176-34.176c3.456-3.328 7.808-4.992 12.16-4.992zM516.992 716.032c-6.656-6.656-6.656-17.408 0-24.192l136.576-136.576c3.328-3.328 7.68-4.992 12.032-4.992s8.704 1.664 12.032 4.992c6.656 6.656 6.656 17.408 0 24.192l-136.448 136.576c-6.784 6.656-17.536 6.656-24.192 0zM768 823.424h-443.776c-9.472 0-17.024-7.68-17.024-17.024s7.68-17.024 17.024-17.024h426.624v-768c0-24.832-26.368-51.2-51.2-51.2h-375.424c-24.832 0-51.2 26.368-51.2 51.2v85.376h426.624c9.472 0 17.024 7.68 17.024 17.024 0 9.472-7.68 17.024-17.024 17.024h-443.648c-9.472 0-17.024-7.68-17.024-17.024v-102.4c0-43.904 41.472-85.376 85.376-85.376h375.424c43.904 0 85.376 41.472 85.376 85.376v785.024c-0.128 9.472-7.68 17.024-17.152 17.024z" />
<glyph unicode="&#xe90d;" glyph-name="iphone_y" d="M461.184 891.776c-9.472 0-17.024-7.68-17.024-17.024s7.68-17.024 17.152-17.024 17.024 7.68 17.024 17.024-7.68 17.024-17.024 17.024h-0.128zM477.824 38.4c0-18.816 15.36-34.176 34.176-34.176s34.176 15.36 34.176 34.176c0 18.816-15.36 34.176-34.176 34.176s-34.176-15.36-34.176-34.176zM256 174.976c9.472 0 17.024 7.68 17.024 17.024v682.624c0 24.832 26.368 51.2 51.2 51.2h375.424c24.832 0 51.2-26.368 51.2-51.2 0-9.472 7.68-17.024 17.024-17.024s17.024 7.68 17.024 17.024c0 43.904-41.472 85.376-85.376 85.376h-375.296c-43.904 0-85.376-41.472-85.376-85.376v-682.624c0.128-9.472 7.68-17.024 17.152-17.024zM529.024 891.776c-9.472 0-17.024-7.68-17.024-17.024s7.68-17.024 17.024-17.024h68.224c9.472 0 17.024 7.68 17.024 17.024s-7.68 17.024-17.024 17.024h-68.224zM665.6 652.8c4.352 0 8.704 1.664 12.032 4.992 6.656 6.656 6.656 17.408 0 24.192l-34.176 34.176c-6.656 6.656-17.408 6.656-24.192 0-6.656-6.656-6.656-17.408 0-24.192l34.176-34.176c3.456-3.328 7.808-4.992 12.16-4.992zM516.992 716.032c-6.656-6.656-6.656-17.408 0-24.192l136.576-136.576c3.328-3.328 7.68-4.992 12.032-4.992s8.704 1.664 12.032 4.992c6.656 6.656 6.656 17.408 0 24.192l-136.448 136.576c-6.784 6.656-17.536 6.656-24.192 0zM768 823.424h-443.776c-9.472 0-17.024-7.68-17.024-17.024s7.68-17.024 17.024-17.024h426.624v-768c0-24.832-26.368-51.2-51.2-51.2h-375.424c-24.832 0-51.2 26.368-51.2 51.2v85.376h426.624c9.472 0 17.024 7.68 17.024 17.024 0 9.472-7.68 17.024-17.024 17.024h-443.648c-9.472 0-17.024-7.68-17.024-17.024v-102.4c0-43.904 41.472-85.376 85.376-85.376h375.424c43.904 0 85.376 41.472 85.376 85.376v785.024c-0.128 9.472-7.68 17.024-17.152 17.024z" />
<glyph unicode="&#xe90e;" d="M512 960c-282.624 0-512-229.376-512-512s229.376-512 512-512 512 229.376 512 512-229.376 512-512 512v0z" />
<glyph unicode="&#xe90f;" d="M818.176 407.040v-210.944h-122.88v196.608c0 49.152-17.408 82.944-61.44 82.944-33.792 0-54.272-22.528-62.464-45.056-3.072-8.192-4.096-18.432-4.096-29.696v-205.824h-122.88c0 0 2.048 333.824 0 368.64h122.88v-52.224c0 0-1.024-1.024-1.024-1.024h1.024v1.024c16.384 24.576 45.056 60.416 110.592 60.416 79.872 1.024 140.288-52.224 140.288-164.864v0zM316.416 740.864c-41.984 0-69.632-27.648-69.632-63.488s26.624-63.488 67.584-63.488h1.024c43.008 0 69.632 28.672 69.632 63.488-1.024 36.864-26.624 63.488-68.608 63.488v0zM253.952 196.096h122.88v368.64h-122.88v-368.64z" />
<glyph unicode="&#xe910;" glyph-name="robot" d="M870.4 379.776c-9.472 0-17.024-7.68-17.024-17.024v-136.576c0-28.288-22.912-51.2-51.2-51.2h-580.224c-28.288 0-51.2 22.912-51.2 51.2v136.448c0 9.472-7.68 17.024-17.024 17.024-9.472 0-17.024-7.68-17.024-17.024v-136.576c0-47.104 38.272-85.376 85.376-85.376h580.224c47.104 0 85.376 38.272 85.376 85.376v136.576c-0.256 9.472-7.808 17.152-17.28 17.152zM170.752 430.976v170.624c0 28.288 22.912 51.2 51.2 51.2h136.448c9.472 0 17.024 7.68 17.024 17.024 0 67.328 73.344 119.424 136.576 119.424 44.416 0 91.392-24.576 116.992-61.056 5.376-7.68 16-9.6 23.808-4.224 7.68 5.376 9.6 16 4.224 23.808-28.928 41.216-77.824 69.12-127.872 74.496v38.4c19.712 7.168 34.048 25.856 34.048 48.128 0 28.288-22.912 51.2-51.2 51.2s-51.2-22.912-51.2-51.2c0-22.272 14.336-40.96 34.176-48v-38.4c-70.272-7.808-142.592-62.208-152.448-135.424h-120.576c-47.104 0-85.376-38.272-85.376-85.376v-153.6h-37.376c-7.040 19.84-25.728 34.176-48 34.176-28.288 0-51.2-22.912-51.2-51.2s22.912-51.2 51.2-51.2c22.272 0 40.96 14.336 48 34.176h54.4c9.472-0.128 17.152 7.552 17.152 17.024zM512 925.824c9.472 0 17.024-7.68 17.024-17.024s-7.68-17.024-17.024-17.024c-9.472 0-17.024 7.68-17.024 17.024s7.68 17.024 17.024 17.024zM51.2 413.824c-9.472 0-17.024 7.68-17.024 17.024s7.68 17.024 17.024 17.024 17.024-7.68 17.024-17.024c0-9.344-7.552-17.024-17.024-17.024zM972.8 482.176c-22.272 0-40.96-14.336-48-34.176h-37.248v153.6c0 47.104-38.272 85.376-85.376 85.376h-375.552c-9.472 0-17.024-7.68-17.024-17.024 0-9.472 7.68-17.024 17.024-17.024h375.424c28.288 0 51.2-22.912 51.2-51.2v-170.624c0-9.472 7.68-17.024 17.024-17.024h54.4c7.040-19.84 25.856-34.176 48-34.176 28.288 0 51.2 22.912 51.2 51.2 0.128 28.032-22.784 51.072-51.072 51.072zM972.8 413.824c-9.472 0-17.024 7.68-17.024 17.024s7.68 17.024 17.024 17.024 17.024-7.68 17.024-17.024c0-9.344-7.552-17.024-17.024-17.024zM665.6 106.624h-307.2c-9.472 0-17.024-7.68-17.024-17.024 0-9.472 7.68-17.024 17.024-17.024h307.2c9.472 0 17.024 7.68 17.024 17.024 0 9.472-7.552 17.024-17.024 17.024zM750.976 499.2c0 28.288-22.912 51.2-51.2 51.2s-51.2-22.912-51.2-51.2 22.912-51.2 51.2-51.2c28.16 0 51.2 22.912 51.2 51.2zM682.624 499.2c0 9.344 7.68 17.024 17.024 17.024s17.024-7.68 17.024-17.024-7.68-17.024-17.024-17.024-17.024 7.68-17.024 17.024zM375.424 499.2c0 28.288-22.912 51.2-51.2 51.2s-51.2-22.912-51.2-51.2 22.912-51.2 51.2-51.2 51.2 22.912 51.2 51.2zM324.352 482.176c-9.472 0-17.024 7.68-17.024 17.024s7.68 17.024 17.024 17.024 17.024-7.68 17.024-17.024c0-9.344-7.68-17.024-17.024-17.024zM631.424-29.824h-238.848c-9.472 0-17.024-7.68-17.024-17.024 0-9.472 7.68-17.024 17.024-17.024h238.976c9.472 0 17.024 7.68 17.024 17.024s-7.68 17.024-17.152 17.024zM341.376 328.576v-68.224c0-9.472 7.68-17.024 17.024-17.024h307.2c9.472 0 17.024 7.68 17.024 17.024v68.224c0 9.472-7.68 17.024-17.024 17.024h-307.2c-9.472 0-17.024-7.68-17.024-17.024zM580.224 311.424h68.224v-34.176h-68.224v34.176zM477.824 311.424h68.224v-34.176h-68.224v34.176zM375.424 311.424h68.224v-34.176h-68.224v34.176zM631.424 38.4h-238.848c-9.472 0-17.024-7.68-17.024-17.024s7.68-17.024 17.024-17.024h238.976c9.472 0 17.024 7.68 17.024 17.024s-7.68 17.024-17.152 17.024z" />
<glyph unicode="&#xe911;" glyph-name="robot_y" d="M870.4 379.776c-9.472 0-17.024-7.68-17.024-17.024v-136.576c0-28.288-22.912-51.2-51.2-51.2h-580.224c-28.288 0-51.2 22.912-51.2 51.2v136.448c0 9.472-7.68 17.024-17.024 17.024-9.472 0-17.024-7.68-17.024-17.024v-136.576c0-47.104 38.272-85.376 85.376-85.376h580.224c47.104 0 85.376 38.272 85.376 85.376v136.576c-0.256 9.472-7.808 17.152-17.28 17.152zM170.752 430.976v170.624c0 28.288 22.912 51.2 51.2 51.2h136.448c9.472 0 17.024 7.68 17.024 17.024 0 67.328 73.344 119.424 136.576 119.424 44.416 0 91.392-24.576 116.992-61.056 5.376-7.68 16-9.6 23.808-4.224 7.68 5.376 9.6 16 4.224 23.808-28.928 41.216-77.824 69.12-127.872 74.496v38.4c19.712 7.168 34.048 25.856 34.048 48.128 0 28.288-22.912 51.2-51.2 51.2s-51.2-22.912-51.2-51.2c0-22.272 14.336-40.96 34.176-48v-38.4c-70.272-7.808-142.592-62.208-152.448-135.424h-120.576c-47.104 0-85.376-38.272-85.376-85.376v-153.6h-37.376c-7.040 19.84-25.728 34.176-48 34.176-28.288 0-51.2-22.912-51.2-51.2s22.912-51.2 51.2-51.2c22.272 0 40.96 14.336 48 34.176h54.4c9.472-0.128 17.152 7.552 17.152 17.024zM512 925.824c9.472 0 17.024-7.68 17.024-17.024s-7.68-17.024-17.024-17.024c-9.472 0-17.024 7.68-17.024 17.024s7.68 17.024 17.024 17.024zM51.2 413.824c-9.472 0-17.024 7.68-17.024 17.024s7.68 17.024 17.024 17.024 17.024-7.68 17.024-17.024-7.552-17.024-17.024-17.024zM972.8 482.176c-22.272 0-40.96-14.336-48-34.176h-37.248v153.6c0 47.104-38.272 85.376-85.376 85.376h-375.552c-9.472 0-17.024-7.68-17.024-17.024 0-9.472 7.68-17.024 17.024-17.024h375.424c28.288 0 51.2-22.912 51.2-51.2v-170.624c0-9.472 7.68-17.024 17.024-17.024h54.4c7.040-19.84 25.856-34.176 48-34.176 28.288 0 51.2 22.912 51.2 51.2 0.128 28.032-22.784 51.072-51.072 51.072zM972.8 413.824c-9.472 0-17.024 7.68-17.024 17.024s7.68 17.024 17.024 17.024 17.024-7.68 17.024-17.024-7.552-17.024-17.024-17.024zM665.6 106.624h-307.2c-9.472 0-17.024-7.68-17.024-17.024 0-9.472 7.68-17.024 17.024-17.024h307.2c9.472 0 17.024 7.68 17.024 17.024 0 9.472-7.552 17.024-17.024 17.024zM750.976 499.2c0 28.288-22.912 51.2-51.2 51.2s-51.2-22.912-51.2-51.2 22.912-51.2 51.2-51.2c28.16 0 51.2 22.912 51.2 51.2zM682.624 499.2c0 9.344 7.68 17.024 17.024 17.024s17.024-7.68 17.024-17.024-7.68-17.024-17.024-17.024-17.024 7.68-17.024 17.024zM375.424 499.2c0 28.288-22.912 51.2-51.2 51.2s-51.2-22.912-51.2-51.2 22.912-51.2 51.2-51.2 51.2 22.912 51.2 51.2zM324.352 482.176c-9.472 0-17.024 7.68-17.024 17.024s7.68 17.024 17.024 17.024c9.344 0 17.024-7.68 17.024-17.024s-7.68-17.024-17.024-17.024zM631.424-29.824h-238.848c-9.472 0-17.024-7.68-17.024-17.024 0-9.472 7.68-17.024 17.024-17.024h238.976c9.472 0 17.024 7.68 17.024 17.024s-7.68 17.024-17.152 17.024zM341.376 328.576v-68.224c0-9.472 7.68-17.024 17.024-17.024h307.2c9.472 0 17.024 7.68 17.024 17.024v68.224c0 9.472-7.68 17.024-17.024 17.024h-307.2c-9.472 0-17.024-7.68-17.024-17.024zM580.224 311.424h68.224v-34.176h-68.224v34.176zM477.824 311.424h68.224v-34.176h-68.224v34.176zM375.424 311.424h68.224v-34.176h-68.224v34.176zM631.424 38.4h-238.848c-9.472 0-17.024-7.68-17.024-17.024s7.68-17.024 17.024-17.024h238.976c9.472 0 17.024 7.68 17.024 17.024s-7.68 17.024-17.152 17.024z" />
<glyph unicode="&#xe912;" glyph-name="projects" d="M1020.587 96.427l-49.493-148.48c-1.707-6.827-8.533-11.947-15.36-11.947s-13.653 5.12-15.36 11.947l-49.493 148.48c-1.707 1.707-3.413 6.827-3.413 10.24v733.867h-34.133v-494.933h-34.133v512c0 10.24 6.827 17.067 17.067 17.067h51.2v68.267c0 10.24 6.827 17.067 17.067 17.067h102.4c10.24 0 17.067-6.827 17.067-17.067v-836.267c0-3.413-1.707-6.827-3.413-10.24zM955.733 7.68l27.307 81.92h-54.613l27.307-81.92zM989.867 925.867h-68.267v-153.6h68.267v153.6zM989.867 738.133h-68.267v-614.4h68.267v614.4zM733.867-64h-716.8c-10.24 0-17.067 6.827-17.067 17.067v989.867c0 10.24 6.827 17.067 17.067 17.067h546.133c1.707 0 3.413-1.707 5.12-1.707h1.707c1.707-1.707 3.413-1.707 5.12-3.413l170.667-170.667c1.707-1.707 1.707-3.413 3.413-5.12v-1.707c1.707-1.707 1.707-3.413 1.707-5.12v-819.2c0-10.24-6.827-17.067-17.067-17.067zM580.267 901.973v-112.64h112.64l-112.64 112.64zM716.8 755.2h-153.6c-10.24 0-17.067 6.827-17.067 17.067v153.6h-512v-955.733h324.267v68.267h-34.133c-10.24 0-17.067 6.827-17.067 17.067v68.267h-17.067c-10.24 0-17.067 6.827-17.067 17.067v126.293c-83.627 39.253-136.533 122.88-136.533 215.040 0 131.413 107.52 238.933 238.933 238.933s238.933-107.52 238.933-238.933c0-92.16-52.907-175.787-136.533-215.040v-126.293c0-10.24-6.827-17.067-17.067-17.067h-17.067v-68.267c0-10.24-6.827-17.067-17.067-17.067h-34.133v-68.267h324.267v785.067zM453.973 292.693c76.8 32.427 126.293 107.52 126.293 189.44 0 112.64-92.16 204.8-204.8 204.8s-204.8-92.16-204.8-204.8c0-81.92 49.493-157.013 126.293-189.44 6.827-3.413 10.24-8.533 10.24-15.36 0 0 0-25.6 0-51.2h85.333v-34.133h-85.333c0-13.653 0-34.133 0-34.133h136.533v119.467c0 6.827 3.413 13.653 10.24 15.36zM409.6 123.733h-68.267v-51.2h68.267v51.2zM392.533 328.533h-34.133v180.907l-46.080 46.080 23.893 23.893 39.253-39.253 39.253 39.253 23.893-23.893-46.080-46.080c0-13.653 0-180.907 0-180.907zM102.4 806.4h221.867v-34.133h-221.867v34.133zM102.4 874.667h85.333v-34.133h-85.333v34.133z" />
<glyph unicode="&#xe913;" glyph-name="team" horiz-adv-x="1322" d="M1269.475 82.276h-91.953c-11.407 0-20.661 9.359-20.661 20.908 0 11.536 9.255 20.895 20.661 20.895h91.953c6.494 0 11.329 3.927 11.329 7.44v26.754c0 31.005-18.834 67.727-54.868 78.291l-75.219 15.93-38.847-56.709c-4.018-5.859-10.46-8.996-17.006-8.996-4.057 0-8.153 1.205-11.744 3.72-9.372 6.585-11.705 19.599-5.211 29.087l38.692 56.476-11.42 17.538-80.572-60.87c-9.138-6.909-22.074-5.003-28.905 4.252-6.831 9.242-4.951 22.347 4.187 29.255l88.427 66.793c6.52 5.185 14.906 7.57 23.15 6.572 8.438-1.037 16.19-5.574 21.284-12.457 0.246-0.337 0.493-0.674 0.726-1.024l20.623-31.653 81.026-17.149c0.454-0.091 0.894-0.207 1.335-0.337 56.242-15.93 85.666-71.784 85.666-118.719v-26.754c0-27.155-23.617-49.243-52.652-49.243zM1156.433 525.267v-22.593c0-50.785-17.084-98.447-48.089-134.196-31.472-36.294-73.508-56.281-118.356-56.281-33.623 0-66.003 11.355-93.625 32.833-9.047 7.038-10.733 20.169-3.785 29.32s19.923 10.862 28.97 3.837c20.337-15.814 44.006-24.187 68.439-24.187 68.997 0 125.135 66.69 125.135 148.674v12.288c0 33.935-10.771 63.488-15.671 75.167-34.803 19.974-77.422 31.666-130.061 35.671-11.381 0.855-19.91 10.888-19.054 22.398s10.758 20.156 22.139 19.287c61.712-4.692 111.823-19.223 153.159-44.408 0.026-0.013 0.052-0.039 0.078-0.052 0.181-0.104 0.363-0.207 0.544-0.311 0.156-0.104 0.298-0.22 0.454-0.324 0.337-0.22 0.674-0.441 0.998-0.674 0.039-0.039 0.091-0.065 0.13-0.091 3.642 35.84 6.844 80.352 7.57 129.841-20.415 1.335-43.915 5.146-68.452 9.164-32.483 5.314-66.054 10.81-96.437 11.433-11.407 0.22-20.467 9.773-20.247 21.31 0.233 11.536 9.592 20.765 21.076 20.48 33.274-0.674 69.891-6.662 102.206-11.964 31.614-5.172 61.479-10.046 81.479-8.996 0.389 0.026 0.778 0.065 1.18 0.065 0.169 0 0.35-0.026 0.518-0.026 10.914 0.078 20.104-8.503 20.752-19.65 0.13-2.242-0.104-4.42-0.635-6.481-0.454-128.609-17.512-225.915-20.415-241.534zM909.131 541.754c0-72.73-26.093-146.341-71.589-201.948-47.869-58.524-110.436-90.747-176.206-90.747s-128.415 32.25-176.413 90.799c-45.639 55.672-71.81 129.309-71.81 202.026h-0.013v33.922c-4.459 19.197-31.9 139.795-31.9 205.046 0 39.845 12.21 76.437 34.388 103.022 24.006 28.789 58.822 44.654 98.032 44.654 0.635 0 1.27-0.039 1.892-0.104 69.865 49.009 161.209 30.474 242.066 14.051 49.904-10.136 97.047-19.715 135.466-14.167 1.62 0.233 3.215 0.246 4.77 0.117 9.449 0.92 18.575-4.848 21.621-14.349 5.729-17.888 11.873-57.357 11.912-114.494 0.026-44.239-3.824-113.612-22.217-193.769v-64.058zM454.423 541.871c0-63.125 22.709-127.028 62.295-175.337 40.001-48.802 91.369-75.672 144.617-75.672 53.235 0 104.5 26.844 144.384 75.595 39.456 48.245 62.088 112.134 62.088 175.298v62.179l-27.687 66.003c-28.231 13.377-152.576 65.277-338.361 43.799-13.027-24.809-47.337-95.089-47.337-146.782v-25.082zM883.751 885.352c-5.042-0.324-10.136-0.48-15.295-0.48-37.175 0-77.189 8.114-119.004 16.617-78.148 15.878-158.953 32.301-214.651-10.512-4.99-3.837-11.134-5.003-16.812-3.785-1.413-0.298-2.865-0.48-4.368-0.48-45.341 0-91.097-32.729-91.097-105.848 0-29.527 6.468-73.067 13.532-111.772 15.554 40.61 33.533 72.38 34.855 74.687 3.642 6.377 10.11 10.059 16.864 10.409 230.646 29.294 372.36-47.311 378.284-50.604 4.083-2.255 7.285-5.833 9.112-10.175l5.833-13.895c13.999 94.247 8.97 170.451 2.748 205.837zM351.219 604.828c-0.998 0-2.009 0.078-3.033 0.233l-3.681 0.544c-32.522 4.861-72.341 10.771-116.917 6.779-7.077-20.661-20.584-64.395-20.584-97.423v-12.288c0-81.972 56.139-148.674 125.135-148.674 24.433 0 48.102 8.373 68.439 24.187 9.047 7.025 22.010 5.314 28.97-3.837 6.948-9.151 5.25-22.282-3.798-29.32-27.622-21.478-59.988-32.833-93.612-32.833-44.849 0-86.884 19.987-118.356 56.281-31.018 35.749-48.089 83.411-48.089 134.196v22.256c-3.292 14.971-20.441 95.193-20.441 139.212 0 62.827 34.323 106.781 83.54 107.183 35.27 23.772 75.789 23.034 103.787 20.234 11.355-1.128 19.65-11.368 18.523-22.852-1.115-11.484-11.238-19.897-22.58-18.743-36.488 3.642-61.362-1.335-80.65-16.164-3.733-2.865-8.127-4.252-12.482-4.252-0.998 0-1.983 0.091-2.955 0.233-0.972-0.143-1.957-0.233-2.968-0.233-21.348 0-42.904-20.221-42.904-65.406 0-10.020 1.089-22.541 2.735-35.84 2.126 6.105 3.616 10.020 3.979 10.953 0.013 0.039 0.026 0.091 0.052 0.143 0 0 0 0.013 0 0.013 0.026 0.052 0.052 0.091 0.065 0.143 0.233 0.583 0.493 1.154 0.765 1.711 0.156 0.298 0.324 0.57 0.48 0.843 0.169 0.311 0.324 0.609 0.506 0.907 0.22 0.35 0.467 0.687 0.713 1.024 0.143 0.207 0.285 0.415 0.441 0.609 0.259 0.35 0.544 0.661 0.83 0.985 0.156 0.194 0.311 0.376 0.48 0.557 0.272 0.285 0.557 0.557 0.843 0.83 0.207 0.194 0.415 0.402 0.622 0.583 0.259 0.233 0.531 0.428 0.791 0.635 0.272 0.22 0.544 0.441 0.83 0.635 0.22 0.169 0.454 0.298 0.687 0.454 0.337 0.22 0.674 0.441 1.024 0.648 0.207 0.117 0.415 0.22 0.622 0.324 0.389 0.207 0.765 0.415 1.167 0.583 0.22 0.104 0.454 0.181 0.674 0.272 0.389 0.169 0.778 0.324 1.18 0.467 0.311 0.104 0.635 0.181 0.946 0.272 0.324 0.091 0.635 0.194 0.972 0.272 0.57 0.13 1.167 0.233 1.763 0.311 0.065 0.013 0.13 0.039 0.207 0.039 0.013 0.013 0.013 0.013 0.026 0.013 0.065 0 0.13 0.013 0.194 0.013 55.179 7.155 102.413 0.104 140.379-5.574l3.668-0.544c11.29-1.685 19.093-12.314 17.434-23.733-1.517-10.383-10.344-17.862-20.415-17.862zM188.649 326.118c0.233 0.363 0.48 0.7 0.726 1.037 5.094 6.883 12.845 11.42 21.284 12.444 8.231 1.011 16.643-1.374 23.15-6.559l88.427-66.806c9.138-6.896 11.018-20 4.187-29.255-6.818-9.242-19.767-11.147-28.905-4.239l-80.572 60.87-11.42-17.538 38.692-56.476c6.494-9.488 4.161-22.515-5.211-29.087-3.59-2.515-7.686-3.733-11.744-3.733-6.559 0-12.988 3.15-17.006 8.996l-38.847 56.709-75.232-15.917c-36.021-10.564-54.868-47.298-54.868-78.291v-26.767c0-3.513 4.848-7.427 11.329-7.427h91.966c11.407 0 20.661-9.359 20.661-20.908 0-11.536-9.255-20.895-20.661-20.895h-91.966c-29.022 0-52.639 22.087-52.639 49.23v26.767c0 46.935 29.424 102.789 85.666 118.719 0.441 0.13 0.894 0.233 1.335 0.337l81.026 17.149 20.623 31.64zM305.009 202.784c0.441 0.117 0.894 0.233 1.348 0.324l122.906 26.015 32.496 49.852c0.22 0.363 0.467 0.7 0.713 1.037 5.911 7.972 14.906 13.234 24.68 14.427 9.773 1.205 19.754-1.724 27.376-8.036 0.13-0.104 0.259-0.22 0.389-0.337l146.147-127.287 146.134 127.3c0.13 0.104 0.272 0.22 0.402 0.337 7.622 6.3 17.602 9.229 27.376 8.023 9.773-1.193 18.769-6.455 24.68-14.427 0.246-0.337 0.48-0.674 0.713-1.037l32.496-49.852 122.906-26.015c0.454-0.091 0.907-0.207 1.348-0.324 35.736-10.136 66.145-32.561 87.921-64.836 19.871-29.463 30.824-65.005 30.824-100.119v-39.301c0-34.479-30.344-62.529-67.636-62.529h-360.137c-0.013 0-0.039 0-0.065 0-0.039 0-0.065 0-0.091 0h-93.741c-0.026 0-0.065 0-0.091 0s-0.052 0-0.078 0h-360.124c-37.292 0-67.636 28.050-67.636 62.529v39.301c0 35.101 10.94 70.656 30.811 100.119 21.789 32.275 52.198 54.7 87.934 64.836zM681.712 72.698v8.049l-20.649 20.895-20.661-20.895v-8.049c0-6.883 4.148-11.445 6.883-11.445h27.544c2.748 0 6.896 4.563 6.896 11.445h-0.013zM724.979-22.197h343.247c14.271 0 26.326 9.488 26.326 20.726v39.301c0 49.308-30.202 107.779-87.947 124.513l-117.449 24.861-117.423-163.373c-3.552-4.939-9.073-8.062-15.088-8.542-0.544-0.039-1.089-0.065-1.62-0.065-5.457 0-10.72 2.191-14.608 6.131l-24.083 24.369c-1.102-2.048-2.294-4.005-3.616-5.859l12.262-62.062zM752.536 68.213l102.646 142.803-25.652 39.34-138.123-120.301 61.129-61.842zM682.839-22.197l-8.231 41.634h-27.104l-8.218-41.634h43.552zM630.719 130.054l-138.123 120.301-25.652-39.34 102.646-142.803 61.129 61.842zM227.574-1.471c0-11.238 12.055-20.726 26.326-20.726h343.247l12.262 62.062c-1.322 1.854-2.515 3.824-3.616 5.859l-24.083-24.369c-3.889-3.94-9.151-6.118-14.608-6.118-0.531 0-1.076 0.013-1.62 0.052-6.014 0.48-11.536 3.603-15.088 8.555l-117.423 163.36-117.449-24.861c-57.746-16.734-87.947-75.206-87.947-124.513v-39.301z" />
<glyph unicode="&#xea8d;" glyph-name="google-plus3" d="M512 960c-282.8 0-512-229.2-512-512s229.2-512 512-512 512 229.2 512 512-229.2 512-512 512zM384 192c-141.6 0-256 114.4-256 256s114.4 256 256 256c69.2 0 127-25.2 171.6-67l-69.6-66.8c-19 18.2-52.2 39.4-102 39.4-87.4 0-158.8-72.4-158.8-161.6s71.4-161.6 158.8-161.6c101.4 0 139.4 72.8 145.2 110.4h-145.2v87.8h241.8c2.2-12.8 4-25.6 4-42.4 0-146.4-98-250.2-245.8-250.2zM832 448v-64h-64v64h-64v64h64v64h64v-64h64v-64h-64z" />
<glyph unicode="&#xea98;" glyph-name="vk" d="M928 960h-832c-52.8 0-96-43.2-96-96v-832c0-52.8 43.2-96 96-96h832c52.8 0 96 43.2 96 96v832c0 52.8-43.2 96-96 96zM829.4 243.2l-93.6-1.4c0 0-20.2-4-46.6 14.2-35 24-68 86.6-93.8 78.4-26-8.2-25.2-64.4-25.2-64.4s0.2-12-5.8-18.4c-6.4-7-19.2-8.4-19.2-8.4h-41.8c0 0-92.4-5.6-173.8 79.2-88.8 92.4-167.2 275.8-167.2 275.8s-4.6 12 0.4 17.8c5.6 6.6 20.6 7 20.6 7l100.2 0.6c0 0 9.4-1.6 16.2-6.6 5.6-4 8.6-11.8 8.6-11.8s16.2-41 37.6-78c41.8-72.2 61.4-88 75.6-80.4 20.6 11.2 14.4 102.2 14.4 102.2s0.4 33-10.4 47.6c-8.4 11.4-24.2 14.8-31 15.6-5.6 0.8 3.6 13.8 15.6 19.8 18 8.8 49.8 9.4 87.4 9 29.2-0.2 37.8-2.2 49.2-4.8 34.6-8.4 22.8-40.6 22.8-117.8 0-24.8-4.4-59.6 13.4-71 7.6-5 26.4-0.8 73.4 79 22.2 37.8 39 82.2 39 82.2s3.6 8 9.2 11.4c5.8 3.4 13.6 2.4 13.6 2.4l105.4 0.6c0 0 31.6 3.8 36.8-10.6 5.4-15-11.8-50-54.8-107.4-70.6-94.2-78.6-85.4-19.8-139.8 56-52 67.6-77.4 69.6-80.6 22.8-38.4-26-41.4-26-41.4z" />
<glyph unicode="&#xeaba;" glyph-name="tumblr2" d="M928 960h-832c-52.8 0-96-43.2-96-96v-832c0-52.8 43.2-96 96-96h832c52.8 0 96 43.2 96 96v832c0 52.8-43.2 96-96 96zM731.8 135.4c-30.2-14.2-57.6-24.2-82-30-24.4-5.6-51-8.6-79.4-8.6-32.4 0-51.4 4-76.2 12.2s-46 19.8-63.6 34.8c-17.6 15.2-29.6 31.2-36.4 48.2s-10.2 41.6-10.2 74v247.8h-96v100c27.8 9 60 22 79.6 38.8 19.8 16.8 35.8 37 47.6 60.6 12 23.6 20.2 53.6 24.8 90h100.4v-163.2h163.6v-126.2h-163.4v-181.2c0-41-0.6-64.6 3.8-76.2s15.2-23.6 27-30.4c15.6-9.4 33.6-14 53.6-14 35.8 0 71.4 11.6 106.8 34.8v-111.4z" />
</font>
</defs>
</svg>
