<svg xmlns="http://www.w3.org/2000/svg" preserveAspectRatio="xMidYMid" width="42" height="25" viewBox="0 0 42 25"><defs><style>.cls-1{fill:#fff;fill-rule:evenodd}</style></defs><path d="M41.972 2.104C41.97.943 41.006 0 39.821 0h-.003L2.149.051c-.575 0-1.115.22-1.52.619a2.07 2.07 0 0 0-.628 1.491L.03 22.895c.001.563.225 1.092.632 1.49.406.397.945.615 1.519.615h.003l37.669-.051c1.186-.002 2.15-.948 2.148-2.11l-.029-20.735zm-4.515.006L21.003 13.316 4.516 2.155l32.941-.045zm-9.496 13.321l9.76 7.414-33.467.045 9.819-7.459a1.04 1.04 0 0 0 .19-1.479 1.09 1.09 0 0 0-1.509-.187L2.18 21.798 2.153 3.117l18.24 12.348a1.092 1.092 0 0 0 1.225-.002L39.822 3.067l.028 18.728-10.571-8.03a1.091 1.091 0 0 0-1.509.187 1.04 1.04 0 0 0 .191 1.479z" class="cls-1"/></svg>